<svg xmlns="http://www.w3.org/2000/svg" viewBox="0 0 1000 680" width="100%" height="100%" style="background: #0b1120; border-radius: 16px; font-family: -apple-system, BlinkMacSystemFont, 'Segoe UI', Roboto, 'Inter', sans-serif;">
  <defs>
    <!-- Gradients -->
    <linearGradient id="bgGrad" x1="0%" y1="0%" x2="100%" y2="100%">
      <stop offset="0%" stop-color="#0b1120"/>
      <stop offset="50%" stop-color="#0f172a"/>
      <stop offset="100%" stop-color="#090d16"/>
    </linearGradient>

    <linearGradient id="qGrad" x1="0%" y1="0%" x2="100%" y2="100%">
      <stop offset="0%" stop-color="#6366f1"/>
      <stop offset="100%" stop-color="#4f46e5"/>
    </linearGradient>

    <linearGradient id="kGrad" x1="0%" y1="0%" x2="100%" y2="100%">
      <stop offset="0%" stop-color="#10b981"/>
      <stop offset="100%" stop-color="#059669"/>
    </linearGradient>

    <linearGradient id="vGrad" x1="0%" y1="0%" x2="100%" y2="100%">
      <stop offset="0%" stop-color="#f59e0b"/>
      <stop offset="100%" stop-color="#d97706"/>
    </linearGradient>

    <linearGradient id="outGrad" x1="0%" y1="0%" x2="100%" y2="100%">
      <stop offset="0%" stop-color="#06b6d4"/>
      <stop offset="100%" stop-color="#2563eb"/>
    </linearGradient>

    <linearGradient id="panelGrad" x1="0%" y1="0%" x2="100%" y2="100%">
      <stop offset="0%" stop-color="#1e293b" stop-opacity="0.75"/>
      <stop offset="100%" stop-color="#0f172a" stop-opacity="0.85"/>
    </linearGradient>

    <linearGradient id="accentGlow" x1="0%" y1="0%" x2="100%" y2="0%">
      <stop offset="0%" stop-color="#6366f1" stop-opacity="0.8"/>
      <stop offset="50%" stop-color="#06b6d4" stop-opacity="0.8"/>
      <stop offset="100%" stop-color="#10b981" stop-opacity="0.8"/>
    </linearGradient>

    <!-- Filters -->
    <filter id="cardShadow" x="-10%" y="-10%" width="120%" height="125%" filterUnits="userSpaceOnUse">
      <feDropShadow dx="0" dy="4" stdDeviation="6" flood-color="#000000" flood-opacity="0.45"/>
    </filter>
    
    <filter id="glowQ" x="-20%" y="-20%" width="140%" height="140%">
      <feDropShadow dx="0" dy="0" stdDeviation="4" flood-color="#6366f1" flood-opacity="0.4"/>
    </filter>
    <filter id="glowK" x="-20%" y="-20%" width="140%" height="140%">
      <feDropShadow dx="0" dy="0" stdDeviation="4" flood-color="#10b981" flood-opacity="0.4"/>
    </filter>
    <filter id="glowV" x="-20%" y="-20%" width="140%" height="140%">
      <feDropShadow dx="0" dy="0" stdDeviation="4" flood-color="#f59e0b" flood-opacity="0.4"/>
    </filter>

    <!-- Markers -->
    <marker id="arrow" viewBox="0 0 10 10" refX="6" refY="5" markerWidth="6" markerHeight="6" orient="auto-start-reverse">
      <path d="M 0 1.5 L 8 5 L 0 8.5 z" fill="#94a3b8"/>
    </marker>
    <marker id="arrowCyan" viewBox="0 0 10 10" refX="6" refY="5" markerWidth="6" markerHeight="6" orient="auto-start-reverse">
      <path d="M 0 1.5 L 8 5 L 0 8.5 z" fill="#38bdf8"/>
    </marker>
    <marker id="arrowEmerald" viewBox="0 0 10 10" refX="6" refY="5" markerWidth="6" markerHeight="6" orient="auto-start-reverse">
      <path d="M 0 1.5 L 8 5 L 0 8.5 z" fill="#34d399"/>
    </marker>
    <marker id="arrowAmber" viewBox="0 0 10 10" refX="6" refY="5" markerWidth="6" markerHeight="6" orient="auto-start-reverse">
      <path d="M 0 1.5 L 8 5 L 0 8.5 z" fill="#fbbf24"/>
    </marker>

    <!-- Grid Pattern -->
    <pattern id="dotGrid" x="0" y="0" width="24" height="24" patternUnits="userSpaceOnUse">
      <circle cx="2" cy="2" r="1" fill="#334155" opacity="0.35"/>
    </pattern>
  </defs>

  <!-- Background Base -->
  <rect width="1000" height="680" rx="16" fill="url(#bgGrad)"/>
  <rect width="1000" height="680" rx="16" fill="url(#dotGrid)"/>
  <rect x="1" y="1" width="998" height="678" rx="15" fill="none" stroke="#1e293b" stroke-width="1.5"/>

  <!-- Top Header Banner -->
  <g transform="translate(40, 24)">
    <rect x="0" y="0" width="130" height="20" rx="4" fill="#1e293b" stroke="#334155" stroke-width="1"/>
    <text x="65" y="14" font-size="9.5" font-weight="700" fill="#38bdf8" text-anchor="middle" letter-spacing="1">ML.EXPERT // CORE</text>
    
    <text x="145" y="16" font-size="19" font-weight="700" fill="#f8fafc" letter-spacing="-0.01em">Scaled Dot-Product Attention</text>
    <text x="445" y="16" font-size="13" font-family="'JetBrains Mono', monospace" fill="#94a3b8">Attention(Q,K,V) = softmax(QK&#7488; / &#8730;d_k + M) V</text>

    <!-- Complexity Chip -->
    <g transform="translate(770, -2)">
      <rect x="0" y="0" width="150" height="26" rx="13" fill="#1e293b" stroke="#334155" stroke-width="1"/>
      <circle cx="13" cy="13" r="4" fill="#10b981"/>
      <text x="82" y="17" font-size="11" font-family="'JetBrains Mono', monospace" font-weight="500" fill="#cbd5e1" text-anchor="middle">Complexity: O(N&#178; &#183; d)</text>
    </g>
    <!-- Divider line -->
    <line x1="0" y1="36" x2="920" y2="36" stroke="url(#accentGlow)" stroke-width="1.5" opacity="0.6"/>
  </g>

  <!-- LEFT COLUMN: COMPUTATION GRAPH -->

  <!-- Graph Container Card -->
  <rect x="40" y="78" width="460" height="576" rx="14" fill="url(#panelGrad)" stroke="#334155" stroke-width="1" filter="url(#cardShadow)"/>
  
  <g transform="translate(60, 95)">
    <text x="0" y="10" font-size="12" font-weight="700" fill="#94a3b8" letter-spacing="1">DATAFLOW PIPELINE</text>
    <text x="420" y="10" font-size="10.5" font-family="'JetBrains Mono', monospace" fill="#64748b" text-anchor="end">Tensor Shapes</text>
  </g>

  <!-- Input Tensors: Q and K -->
  <!-- Query Q -->
  <g transform="translate(65, 125)">
    <rect x="0" y="0" width="165" height="50" rx="9" fill="url(#qGrad)" filter="url(#glowQ)"/>
    <text x="14" y="22" font-size="13.5" font-weight="700" fill="#ffffff">Query (Q)</text>
    <text x="14" y="39" font-size="10.5" font-family="'JetBrains Mono', monospace" fill="#c7d2fe">[B, H, S, d_k]</text>
    <circle cx="145" cy="25" r="10" fill="#4338ca" stroke="#818cf8" stroke-width="1.5"/>
    <text x="145" y="29" font-size="10" font-weight="700" fill="#ffffff" text-anchor="middle">Q</text>
  </g>

  <!-- Key K -->
  <g transform="translate(255, 125)">
    <rect x="0" y="0" width="165" height="50" rx="9" fill="url(#kGrad)" filter="url(#glowK)"/>
    <text x="14" y="22" font-size="13.5" font-weight="700" fill="#ffffff">Key (K)</text>
    <text x="14" y="39" font-size="10.5" font-family="'JetBrains Mono', monospace" fill="#a7f3d0">[B, H, S, d_k]</text>
    <circle cx="145" cy="25" r="10" fill="#047857" stroke="#34d399" stroke-width="1.5"/>
    <text x="145" y="29" font-size="10" font-weight="700" fill="#ffffff" text-anchor="middle">K</text>
  </g>

  <!-- Flow Arrows from Q and K to MatMul 1 -->
  <!-- Q path -->
  <path d="M 147 175 L 147 195 Q 147 205 165 205 L 195 205" fill="none" stroke="#818cf8" stroke-width="2" marker-end="url(#arrowCyan)"/>
  <!-- K path (with transpose indicator) -->
  <path d="M 337 175 L 337 195 Q 337 205 320 205 L 295 205" fill="none" stroke="#34d399" stroke-width="2" marker-end="url(#arrowEmerald)"/>
  <!-- Transpose K badge -->
  <g transform="translate(350, 185)">
    <rect x="0" y="0" width="70" height="20" rx="4" fill="#064e3b" stroke="#059669" stroke-width="1"/>
    <text x="35" y="14" font-size="9" font-family="'JetBrains Mono', monospace" font-weight="600" fill="#6ee7b7" text-anchor="middle">K&#7488;: [d_k &#215; S]</text>
  </g>

  <!-- Node 1: MatMul 1 (Q · K^T) -->
  <g transform="translate(145, 210)">
    <rect x="0" y="0" width="195" height="46" rx="9" fill="#1e293b" stroke="#38bdf8" stroke-width="1.5"/>
    <rect x="4" y="4" width="38" height="38" rx="6" fill="#0284c7" opacity="0.25"/>
    <text x="23" y="28" font-size="18" fill="#38bdf8" text-anchor="middle">&#8855;</text>
    <text x="48" y="23" font-size="13" font-weight="700" fill="#f8fafc">MatMul (Q &#183; K&#7488;)</text>
    <text x="48" y="38" font-size="10" font-family="'JetBrains Mono', monospace" fill="#94a3b8">Pairwise dot products</text>
  </g>
  <!-- Shape badge 1 -->
  <g transform="translate(355, 222)">
    <rect x="0" y="0" width="125" height="22" rx="5" fill="#0f172a" stroke="#334155" stroke-width="1"/>
    <text x="62" y="15" font-size="10" font-family="'JetBrains Mono', monospace" fill="#38bdf8" text-anchor="middle">[B, H, S, S]</text>
  </g>

  <!-- Flow down to Scale -->
  <path d="M 242 256 L 242 278" fill="none" stroke="#94a3b8" stroke-width="2" marker-end="url(#arrow)"/>

  <!-- Node 2: Scale (1 / sqrt(d_k)) -->
  <g transform="translate(145, 280)">
    <rect x="0" y="0" width="195" height="46" rx="9" fill="#1e293b" stroke="#818cf8" stroke-width="1.5"/>
    <rect x="4" y="4" width="38" height="38" rx="6" fill="#6366f1" opacity="0.25"/>
    <text x="23" y="28" font-size="16" fill="#818cf8" text-anchor="middle">&#247;</text>
    <text x="48" y="23" font-size="13" font-weight="700" fill="#f8fafc">Scale (&#247; &#8730;d_k)</text>
    <text x="48" y="38" font-size="10" font-family="'JetBrains Mono', monospace" fill="#a5b4fc">d_k = d_model / h</text>
  </g>
  <!-- Shape badge 2 -->
  <g transform="translate(355, 292)">
    <rect x="0" y="0" width="125" height="22" rx="5" fill="#0f172a" stroke="#334155" stroke-width="1"/>
    <text x="62" y="15" font-size="10" font-family="'JetBrains Mono', monospace" fill="#818cf8" text-anchor="middle">Var(S) = 1.0</text>
  </g>

  <!-- Flow down to Mask -->
  <path d="M 242 326 L 242 348" fill="none" stroke="#94a3b8" stroke-width="2" marker-end="url(#arrow)"/>

  <!-- Node 3: Mask (Optional) -->
  <g transform="translate(145, 350)">
    <rect x="0" y="0" width="195" height="46" rx="9" fill="#1e293b" stroke="#f43f5e" stroke-width="1.5" stroke-dasharray="5 3"/>
    <rect x="4" y="4" width="38" height="38" rx="6" fill="#f43f5e" opacity="0.2"/>
    <text x="23" y="27" font-size="15" fill="#f43f5e" text-anchor="middle">&#8856;</text>
    <text x="48" y="23" font-size="13" font-weight="700" fill="#f8fafc">Mask (Opt.)</text>
    <text x="48" y="38" font-size="10" font-family="'JetBrains Mono', monospace" fill="#fda4af">Add -&#8734; at invalid pos</text>
  </g>
  <!-- Shape badge 3 -->
  <g transform="translate(355, 362)">
    <rect x="0" y="0" width="125" height="22" rx="5" fill="#0f172a" stroke="#334155" stroke-width="1"/>
    <text x="62" y="15" font-size="10" font-family="'JetBrains Mono', monospace" fill="#fda4af" text-anchor="middle">Causal / Pad [S, S]</text>
  </g>

  <!-- Flow down to Softmax -->
  <path d="M 242 396 L 242 418" fill="none" stroke="#94a3b8" stroke-width="2" marker-end="url(#arrow)"/>

  <!-- Node 4: Softmax -->
  <g transform="translate(145, 420)">
    <rect x="0" y="0" width="195" height="46" rx="9" fill="#1e293b" stroke="#38bdf8" stroke-width="1.5"/>
    <rect x="4" y="4" width="38" height="38" rx="6" fill="#0284c7" opacity="0.25"/>
    <path d="M 12 30 Q 23 12 34 30" fill="none" stroke="#38bdf8" stroke-width="1.5"/>
    <text x="48" y="23" font-size="13" font-weight="700" fill="#f8fafc">Softmax (dim=-1)</text>
    <text x="48" y="38" font-size="10" font-family="'JetBrains Mono', monospace" fill="#7dd3fc">&#931; P_ij = 1.0 (Weights)</text>
  </g>
  <!-- Shape badge 4 -->
  <g transform="translate(355, 432)">
    <rect x="0" y="0" width="125" height="22" rx="5" fill="#0f172a" stroke="#334155" stroke-width="1"/>
    <text x="62" y="15" font-size="10" font-family="'JetBrains Mono', monospace" fill="#38bdf8" text-anchor="middle">Attn A: [B, H, S, S]</text>
  </g>

  <!-- Input Tensor: Value (V) -->
  <g transform="translate(345, 480)">
    <rect x="0" y="0" width="135" height="44" rx="8" fill="url(#vGrad)" filter="url(#glowV)"/>
    <text x="12" y="20" font-size="12.5" font-weight="700" fill="#ffffff">Value (V)</text>
    <text x="12" y="35" font-size="10" font-family="'JetBrains Mono', monospace" fill="#fef3c7">[B, H, S, d_v]</text>
    <circle cx="115" cy="22" r="9" fill="#b45309" stroke="#fcd34d" stroke-width="1.2"/>
    <text x="115" y="25.5" font-size="9.5" font-weight="700" fill="#ffffff" text-anchor="middle">V</text>
  </g>

  <!-- Softmax down to MatMul 2 -->
  <path d="M 242 466 L 242 498" fill="none" stroke="#38bdf8" stroke-width="2" marker-end="url(#arrowCyan)"/>
  <!-- Value into MatMul 2 -->
  <path d="M 345 502 L 310 502 Q 295 502 295 510 L 295 514" fill="none" stroke="#f59e0b" stroke-width="2" marker-end="url(#arrowAmber)"/>

  <!-- Node 5: MatMul 2 (Weights A · V) -->
  <g transform="translate(145, 516)">
    <rect x="0" y="0" width="195" height="46" rx="9" fill="#1e293b" stroke="#f59e0b" stroke-width="1.5"/>
    <rect x="4" y="4" width="38" height="38" rx="6" fill="#f59e0b" opacity="0.25"/>
    <text x="23" y="28" font-size="18" fill="#fbbf24" text-anchor="middle">&#8855;</text>
    <text x="48" y="23" font-size="13" font-weight="700" fill="#f8fafc">MatMul (A &#183; V)</text>
    <text x="48" y="38" font-size="10" font-family="'JetBrains Mono', monospace" fill="#fde68a">Weighted aggregation</text>
  </g>
  <!-- Shape badge 5 -->
  <g transform="translate(355, 528)">
    <rect x="0" y="0" width="125" height="22" rx="5" fill="#0f172a" stroke="#334155" stroke-width="1"/>
    <text x="62" y="15" font-size="10" font-family="'JetBrains Mono', monospace" fill="#fbbf24" text-anchor="middle">[B, H, S, d_v]</text>
  </g>

  <!-- Flow down to Output -->
  <path d="M 242 562 L 242 584" fill="none" stroke="#94a3b8" stroke-width="2" marker-end="url(#arrow)"/>

  <!-- Node 6: Output Projection -->
  <g transform="translate(130, 586)">
    <rect x="0" y="0" width="225" height="48" rx="10" fill="url(#outGrad)" filter="url(#cardShadow)"/>
    <text x="112" y="22" font-size="13" font-weight="700" fill="#ffffff" text-anchor="middle">Attention Output (Linear W&#7914;)</text>
    <text x="112" y="38" font-size="10.5" font-family="'JetBrains Mono', monospace" fill="#e0f2fe" text-anchor="middle">Concat Heads &#8594; [B, S, d_model]</text>
  </g>

  <!-- RIGHT COLUMN: VISUAL INTUITION & GEOMETRY -->

  <!-- Top Right Card: Tensor Contraction Geometry -->
  <rect x="520" y="78" width="440" height="295" rx="14" fill="url(#panelGrad)" stroke="#334155" stroke-width="1" filter="url(#cardShadow)"/>
  
  <g transform="translate(540, 95)">
    <rect x="0" y="-3" width="6" height="18" rx="3" fill="#38bdf8"/>
    <text x="14" y="11" font-size="12" font-weight="700" fill="#f8fafc" letter-spacing="0.5">TENSOR CONTRACTION GEOMETRY</text>
    <text x="400" y="11" font-size="10.5" font-family="'JetBrains Mono', monospace" fill="#94a3b8" text-anchor="end">Matrix View</text>
    
    <!-- Step 1: Q and K^T -> A -->
    <g transform="translate(10, 28)">
      <text x="0" y="10" font-size="11" font-weight="600" fill="#cbd5e1">1. Affinity Scoring: Q &#215; K&#7488; = Logits [S &#215; S]</text>
      
      <!-- Q Matrix [S x d_k] -->
      <g transform="translate(10, 20)">
        <rect x="0" y="0" width="40" height="60" rx="4" fill="#312e81" stroke="#6366f1" stroke-width="1.2"/>
        <text x="20" y="34" font-size="11" font-weight="700" fill="#a5b4fc" text-anchor="middle">Q</text>
        <text x="20" y="72" font-size="9" font-family="'JetBrains Mono', monospace" fill="#94a3b8" text-anchor="middle">S &#215; d_k</text>
      </g>

      <text x="62" y="55" font-size="14" fill="#94a3b8" text-anchor="middle">&#215;</text>

      <!-- K^T Matrix [d_k x S] -->
      <g transform="translate(74, 30)">
        <rect x="0" y="0" width="60" height="40" rx="4" fill="#064e3b" stroke="#10b981" stroke-width="1.2"/>
        <text x="30" y="24" font-size="11" font-weight="700" fill="#6ee7b7" text-anchor="middle">K&#7488;</text>
        <text x="30" y="52" font-size="9" font-family="'JetBrains Mono', monospace" fill="#94a3b8" text-anchor="middle">d_k &#215; S</text>
      </g>

      <text x="148" y="55" font-size="14" fill="#94a3b8" text-anchor="middle">=</text>

      <!-- Attention Heatmap Matrix [S x S] -->
      <g transform="translate(164, 20)">
        <rect x="0" y="0" width="60" height="60" rx="4" fill="#0c4a6e" stroke="#0284c7" stroke-width="1.2"/>
        <!-- Grid lines to indicate S x S tokens -->
        <line x1="15" y1="0" x2="15" y2="60" stroke="#0284c7" stroke-width="0.8" opacity="0.4"/>
        <line x1="30" y1="0" x2="30" y2="60" stroke="#0284c7" stroke-width="0.8" opacity="0.4"/>
        <line x1="45" y1="0" x2="45" y2="60" stroke="#0284c7" stroke-width="0.8" opacity="0.4"/>
        <line x1="0" y1="15" x2="60" y2="15" stroke="#0284c7" stroke-width="0.8" opacity="0.4"/>
        <line x1="0" y1="30" x2="60" y2="30" stroke="#0284c7" stroke-width="0.8" opacity="0.4"/>
        <line x1="0" y1="45" x2="60" y2="45" stroke="#0284c7" stroke-width="0.8" opacity="0.4"/>
        <rect x="0" y="15" width="60" height="15" fill="#38bdf8" opacity="0.25"/>
        <circle cx="22.5" cy="22.5" r="4" fill="#38bdf8"/>
        <text x="30" y="72" font-size="9" font-family="'JetBrains Mono', monospace" fill="#38bdf8" text-anchor="middle">Attn A [S &#215; S]</text>
      </g>

      <!-- Explanation note -->
      <g transform="translate(242, 22)">
        <rect x="0" y="0" width="145" height="58" rx="6" fill="#0f172a" stroke="#1e293b" stroke-width="1"/>
        <text x="10" y="16" font-size="9.5" font-weight="600" fill="#f1f5f9">Token-to-Token Affinity</text>
        <text x="10" y="32" font-size="8.5" fill="#94a3b8">Row i: Query token i</text>
        <text x="10" y="46" font-size="8.5" fill="#94a3b8">Col j: Attention to Key j</text>
      </g>
    </g>

    <!-- Step 2: A and V -> Output Context -->
    <g transform="translate(10, 142)">
      <text x="0" y="10" font-size="11" font-weight="600" fill="#cbd5e1">2. Value Aggregation: Softmax(A) &#215; V = Context [S &#215; d_v]</text>
      
      <!-- Attention Matrix A -->
      <g transform="translate(10, 20)">
        <rect x="0" y="0" width="60" height="60" rx="4" fill="#0c4a6e" stroke="#0284c7" stroke-width="1.2"/>
        <text x="30" y="34" font-size="11" font-weight="700" fill="#7dd3fc" text-anchor="middle">A</text>
        <text x="30" y="72" font-size="9" font-family="'JetBrains Mono', monospace" fill="#94a3b8" text-anchor="middle">S &#215; S</text>
      </g>

      <text x="82" y="55" font-size="14" fill="#94a3b8" text-anchor="middle">&#215;</text>

      <!-- V Matrix [S x d_v] -->
      <g transform="translate(94, 20)">
        <rect x="0" y="0" width="40" height="60" rx="4" fill="#78350f" stroke="#f59e0b" stroke-width="1.2"/>
        <text x="20" y="34" font-size="11" font-weight="700" fill="#fde68a" text-anchor="middle">V</text>
        <text x="20" y="72" font-size="9" font-family="'JetBrains Mono', monospace" fill="#94a3b8" text-anchor="middle">S &#215; d_v</text>
      </g>

      <text x="148" y="55" font-size="14" fill="#94a3b8" text-anchor="middle">=</text>

      <!-- Context Matrix Out [S x d_v] -->
      <g transform="translate(164, 20)">
        <rect x="0" y="0" width="40" height="60" rx="4" fill="url(#outGrad)" stroke="#38bdf8" stroke-width="1.2"/>
        <text x="20" y="34" font-size="11" font-weight="700" fill="#ffffff" text-anchor="middle">Out</text>
        <text x="20" y="72" font-size="9" font-family="'JetBrains Mono', monospace" fill="#38bdf8" text-anchor="middle">S &#215; d_v</text>
      </g>

      <!-- Explanation note -->
      <g transform="translate(222, 22)">
        <rect x="0" y="0" width="165" height="58" rx="6" fill="#0f172a" stroke="#1e293b" stroke-width="1"/>
        <text x="10" y="16" font-size="9.5" font-weight="600" fill="#f1f5f9">Convex Mixture of Values</text>
        <text x="10" y="32" font-size="8.5" fill="#94a3b8">Each token gets a blend</text>
        <text x="10" y="46" font-size="8.5" fill="#94a3b8">weighted by attention probs</text>
      </g>
    </g>
  </g>

  <!-- Bottom Right Card: Mathematical Rationale (Variance Normalization) -->
  <rect x="520" y="388" width="440" height="266" rx="14" fill="url(#panelGrad)" stroke="#334155" stroke-width="1" filter="url(#cardShadow)"/>
  
  <g transform="translate(540, 405)">
    <rect x="0" y="-3" width="6" height="18" rx="3" fill="#818cf8"/>
    <text x="14" y="11" font-size="12" font-weight="700" fill="#f8fafc" letter-spacing="0.5">WHY SCALE BY 1 / &#8730;d_k ?</text>
    <text x="400" y="11" font-size="10.5" font-family="'JetBrains Mono', monospace" fill="#818cf8" text-anchor="end">Variance Guard</text>

    <!-- Formula derivation box -->
    <g transform="translate(0, 25)">
      <rect x="0" y="0" width="400" height="66" rx="8" fill="#0f172a" stroke="#1e293b" stroke-width="1"/>
      <text x="14" y="19" font-size="10" font-family="'JetBrains Mono', monospace" fill="#94a3b8">Assuming q_i, k_i ~ i.i.d.(0, 1):</text>
      <text x="14" y="37" font-size="11" font-family="'JetBrains Mono', monospace" font-weight="600" fill="#f43f5e">Var(q &#183; k) = Var(&#931; q_i k_i) = d_k</text>
      <text x="218" y="37" font-size="9.5" fill="#fda4af">(Explodes with dimension!)</text>
      <text x="14" y="55" font-size="11" font-family="'JetBrains Mono', monospace" font-weight="600" fill="#34d399">Var((q &#183; k) / &#8730;d_k) = (1/d_k) &#183; d_k = 1.0</text>
      <text x="280" y="55" font-size="9.5" fill="#a7f3d0">(Unit Variance preserved)</text>
    </g>

    <!-- Visual Graphs: Unscaled vs Scaled Softmax Saturation -->
    <g transform="translate(0, 102)">
      <!-- Unscaled Plot -->
      <g transform="translate(0, 0)">
        <rect x="0" y="0" width="192" height="120" rx="8" fill="#0f172a" stroke="#f43f5e" stroke-width="1" stroke-opacity="0.4"/>
        <text x="12" y="16" font-size="10" font-weight="700" fill="#f43f5e">Without Scaling (d_k=64)</text>
        <text x="12" y="28" font-size="8.5" fill="#fda4af">High Variance (Var = 64)</text>

        <!-- Wide Spread distribution curve -->
        <path d="M 20 85 Q 96 65 172 85" fill="none" stroke="#f43f5e" stroke-width="1.8"/>
        <!-- Extreme Logit point -->
        <circle cx="150" cy="72" r="3" fill="#f43f5e"/>
        <text x="150" y="64" font-size="8" fill="#fda4af" text-anchor="middle">z = +16</text>
        
        <rect x="12" y="94" width="168" height="18" rx="3" fill="#450a0a"/>
        <text x="96" y="106" font-size="8.5" font-weight="600" fill="#fca5a5" text-anchor="middle">&#9888; Softmax Saturates &#8594; &#8711; &#8594; 0</text>
      </g>

      <!-- Scaled Plot -->
      <g transform="translate(208, 0)">
        <rect x="0" y="0" width="192" height="120" rx="8" fill="#0f172a" stroke="#10b981" stroke-width="1" stroke-opacity="0.4"/>
        <text x="12" y="16" font-size="10" font-weight="700" fill="#34d399">With 1/&#8730;d_k Scaling</text>
        <text x="12" y="28" font-size="8.5" fill="#a7f3d0">Controlled Variance (Var = 1.0)</text>

        <!-- Bell curve centered -->
        <path d="M 20 85 Q 70 85 85 55 Q 96 35 107 55 Q 122 85 172 85" fill="none" stroke="#34d399" stroke-width="1.8"/>
        <!-- Softmax active region -->
        <line x1="75" y1="45" x2="117" y2="45" stroke="#38bdf8" stroke-dasharray="2 2" stroke-width="1"/>
        <text x="96" y="52" font-size="7.5" fill="#38bdf8" text-anchor="middle">Active Gradient Zone</text>
        
        <rect x="12" y="94" width="168" height="18" rx="3" fill="#064e3b"/>
        <text x="96" y="106" font-size="8.5" font-weight="600" fill="#6ee7b7" text-anchor="middle">&#10003; Stable Gradients &amp; Fast Training</text>
      </g>
    </g>
  </g>
</svg>